<?xml version="1.0" encoding="UTF-8"?>
<svg width="110px" height="110px" viewBox="0 0 110 110" version="1.1" xmlns="http://www.w3.org/2000/svg" xmlns:xlink="http://www.w3.org/1999/xlink">
    <!-- Generator: Sketch 51 (57462) - http://www.bohemiancoding.com/sketch -->
    <title>contact /gray@1x</title>
    <desc>Created with Sketch.</desc>
    <defs></defs>
    <g id="contact-/gray" stroke="none" stroke-width="1" fill="none" fill-rule="evenodd">
        <g id="contact@1x" transform="translate(18.000000, 16.000000)" fill-rule="nonzero">
            <path d="M26.3463055,48.1505141 L27.0499876,48.2484243 C29.776158,48.1490146 31.7440148,47.948431 32.953558,47.6466734 C34.1631013,47.3449157 35.8209676,46.6409514 37.9271569,45.5347806 L39.8537663,31.6485031 L39.8537663,28.3399061 L37.5681375,22.7454928 L31.0093979,27.1448976 C33.9792788,30.7376494 35.4642193,33.9723281 35.4642193,36.8489339 C35.4642193,39.7255397 35.4642193,42.1895457 35.4642193,44.240952 L25.6440971,45.5347806 C24.9703871,46.0222254 24.8371323,46.9400579 25.3464641,47.584817 C25.5890367,47.8918875 25.9482571,48.0951296 26.3463055,48.1505141 Z" id="Path-8" fill="#E8E8E8"></path>
            <path d="M18.0946561,54.4486446 C20.4676145,56.6368245 22.8736484,57.7309144 25.3127576,57.7309144 C27.7518667,57.7309144 30.7043055,56.8890439 34.1700737,55.2053025 L32.4681481,49.2306673 C29.1921001,51.0658415 26.8069699,51.9834286 25.3127576,51.9834286 C23.8185452,51.9834286 21.4125113,51.0658415 18.0946561,49.2306673 L18.0946561,54.4486446 Z" id="Path-7" fill="#E8E8E8"></path>
            <path d="M27.8249061,11.6172848 C33.0415843,15.6236646 36.2166349,19.2292826 37.3500583,22.4341389 C38.4834815,25.6389951 39.0181883,28.094924 38.9541787,29.8019256 C39.6440604,32.0268442 39.9890012,33.1393034 39.9890012,33.1393034 C39.9890012,33.1393034 41.1628347,33.5400653 43.5105015,34.3415887 L45.0709789,32.1439994 C45.7382311,26.9019205 44.7597671,22.3183243 42.1355872,18.3932106 C39.5114075,14.4680971 34.7411804,12.2094551 27.8249061,11.6172848 Z" id="Path-6" fill="#E8E8E8"></path>
            <path d="M26.6975827,6.10265408 C27.4063368,7.23352777 27.7607137,8.00442725 27.7607137,8.41535251 C27.7607137,8.82627777 27.4063368,9.49731918 26.6975827,10.4284767 L34.3908273,12.2529891 L32.2600147,7.73451093 L26.6975827,6.10265408 Z" id="Path-5" fill="#E8E8E8"></path>
            <rect id="Rectangle" fill="#E8E8E8" x="0" y="74.125336" width="50.5555556" height="3.7217742" rx="1.45833333"></rect>
            <path d="M66.1555092,6.74990272 L66.141412,6.74990272 C65.4117592,6.74990272 64.8274537,7.31592254 64.8274537,8.01422044 C64.8274537,8.71251831 65.4260185,9.27853814 66.1555092,9.27853814 C66.885,9.27853814 67.4765972,8.71251831 67.4765972,8.01422044 C67.4765972,7.31592254 66.885,6.74990272 66.1555092,6.74990272 Z" id="Shape" fill="#7F7F7F"></path>
            <path d="M47.1385185,58.4044067 L34.5646065,53.3905566 C34.0047685,53.1674053 33.6432639,52.6482178 33.6432639,52.067776 L33.6432639,49.5152593 L35.9942592,48.2653634 C38.0085417,47.1942678 39.3356251,45.2437479 39.5441667,43.047591 L39.5493519,42.9931601 L40.7769444,42.9931601 C43.0593981,42.9931601 44.9163425,41.216013 44.9163425,39.0316417 L44.9163425,36.5965158 C45.2864352,35.7400425 46.3254167,32.9988007 46.3254167,29.2170129 C46.3254167,23.9917971 44.1866899,19.0616868 40.3033101,15.3346401 C38.8174305,13.9087354 37.1367824,12.7235054 35.3135417,11.7991097 C35.2500232,7.51937954 30.7731019,4.05270194 25.2766435,4.05270194 C19.7801852,4.05270194 15.3032639,7.51937954 15.2395833,11.7991097 C13.4163425,12.7233503 11.7356944,13.9085803 10.2498148,15.3346401 C6.36643519,19.0616868 4.22770833,23.9916419 4.22770833,29.2170129 C4.22770833,32.9988007 5.26668981,35.7398874 5.63678241,36.5965158 L5.63678241,39.0316417 C5.63678241,41.216013 7.49372685,42.9931601 9.77618056,42.9931601 L11.0037731,42.9931601 L11.0087963,43.047591 C11.217338,45.2437479 12.5445833,47.1944228 14.5588657,48.2653634 L16.9098611,49.5152593 L16.9098611,52.067776 C16.9098611,52.6480626 16.5481944,53.1672501 15.9885185,53.3905566 L3.41460648,58.4044067 C1.34020833,59.231571 0,61.1555733 0,63.3059834 L0,71.3974306 C0,73.5818019 1.85694444,75.3589492 4.13939815,75.3589492 L46.4135648,75.3589492 C48.6960185,75.3589492 50.5529629,73.5818019 50.5529629,71.3974306 L50.5529629,63.3059834 C50.5528009,61.1555733 49.2125925,59.231571 47.1385185,58.4044067 Z M42.2741667,39.0314866 C42.2741667,39.8215882 41.6025232,40.4643696 40.7769444,40.4643696 L39.7896528,40.4643696 L40.3180556,34.9014028 L40.7769444,34.9014028 C41.6025232,34.9014028 42.2741667,35.5441842 42.2741667,36.3342858 L42.2741667,39.0314866 Z M25.2764815,6.58133737 C28.7367824,6.58133737 31.648588,8.29552452 32.4531019,10.6028695 C30.1900925,9.84331737 27.7710417,9.44710349 25.2764815,9.44710349 C22.7819213,9.44710349 20.3630324,9.84331737 18.0998611,10.6028695 C18.9042129,8.29552452 21.8160185,6.58133737 25.2764815,6.58133737 Z M9.77585648,40.4643696 C8.95027777,40.4643696 8.27863425,39.8215882 8.27863425,39.0314866 L8.27863425,36.3342858 C8.27863425,35.5441842 8.95027777,34.9014027 9.77585648,34.9014027 L10.2347454,34.9014027 L10.7631481,40.4643696 L9.77585648,40.4643696 Z M15.8420371,46.0549396 C14.5925695,45.3906029 13.7692592,44.1807162 13.6399537,42.8185469 L12.6341898,32.2311848 C14.3621528,32.2207949 17.3920833,32.0799878 20.9353472,31.3773478 C28.1816435,29.9405878 34.0934028,26.8059235 38.0313889,22.3125014 C38.5003241,21.7776515 38.4272453,20.9801064 37.8680556,20.5314775 C37.3090277,20.0826935 36.4758333,20.1526319 36.0068981,20.687792 C27.4124537,30.494667 11.4863194,29.691229 11.2685417,29.6785129 L11.2685417,29.6799085 C11.2017824,29.6760317 11.134213,29.6752564 11.0655093,29.6813043 C10.3389352,29.7445744 9.80340277,30.3594426 9.86951389,31.054794 L9.99460648,32.3730775 L9.77585648,32.3730775 C8.85094908,32.3730775 7.99587963,32.6650817 7.30592592,33.1574414 C7.06643519,32.093014 6.86939815,30.752555 6.86939815,29.2170129 C6.86939815,24.6659034 8.73428241,20.3700455 12.1203704,17.1201613 C15.5771065,13.8026648 20.2492824,11.9755838 25.2763195,11.9755838 C30.3033565,11.9755838 34.9753704,13.8025098 38.4322685,17.1201613 C41.8183565,20.3697353 43.6832408,24.6659034 43.6832408,29.2170129 C43.6832408,30.7523999 43.4863657,32.093169 43.2467129,33.1575965 C42.5567592,32.6650817 41.7018519,32.3730775 40.7767824,32.3730775 L40.5580324,32.3730775 L40.6832871,31.054639 C40.7189352,30.6810659 40.5789352,30.3115247 40.3016899,30.0461933 L37.4833796,27.3489924 C36.9674537,26.8552371 36.1310185,26.8552371 35.6152547,27.3489924 C35.0993287,27.8427479 35.0993287,28.6430843 35.6152547,29.1368398 L37.9960648,31.4153409 L37.0554399,41.3175864 C35.9765972,42.2308167 32.5548611,44.5102483 25.2763195,44.5102483 C24.5466667,44.5102483 23.9552315,45.0762681 23.9552315,45.774566 C23.9552315,46.4728639 24.5466667,47.0388838 25.2763195,47.0388838 C30.3341435,47.0388838 33.7952547,46.0253205 36.0401157,44.9554656 C35.6854167,45.3988219 35.236412,45.7756515 34.7109259,46.0550948 L27.3721065,49.9570648 C26.0597685,50.6547425 24.4928704,50.6547425 23.1806944,49.9570648 L15.8420371,46.0549396 Z M17.0046528,55.7244192 C18.5521065,55.1073801 19.5518751,53.6720158 19.5518751,52.067776 L19.5518751,50.9199189 L21.8975232,52.1671784 C22.9554629,52.7294765 24.1158101,53.0109356 25.2764815,53.0109356 C26.4371528,53.0109356 27.5975,52.7297867 28.6554399,52.1671784 L31.001088,50.9199189 L31.001088,52.067776 C31.001088,53.6723259 32.0008565,55.1075351 33.5483101,55.7244192 L34.9340509,56.2769476 C32.4558565,59.0304402 30.0607871,60.3985023 28.4386343,61.0674913 C26.6443981,61.807349 25.4020601,61.8681379 25.2763195,61.8726351 C25.1505787,61.868293 23.9082408,61.807349 22.1140047,61.0674913 C20.4918519,60.3986575 18.0969444,59.0304402 15.618588,56.2769476 L17.0046528,55.7244192 Z M8.45476852,72.8304687 L4.13939815,72.8304687 C3.31381944,72.8304687 2.64217592,72.1876873 2.64217592,71.3975857 L2.64217592,63.3061385 C2.64217592,62.9575322 2.70974537,62.6204015 2.83483796,62.3080827 L7.36409723,65.7760008 C8.05745371,66.3066639 8.45476852,67.0983163 8.45476852,67.9479663 L8.45476852,72.8304687 Z M39.4558565,67.9476561 L39.4558565,72.8303137 L11.0969444,72.8303137 L11.0969444,67.9476561 C11.0969444,66.3255828 10.337963,64.8143874 9.01460648,63.8011344 L4.81444444,60.5853664 L13.0658565,57.2950079 C17.4189815,62.4478042 21.8190972,63.8654901 23.9552315,64.2545706 L23.9552315,68.5318195 C23.9552315,69.2301174 24.5466667,69.7961373 25.2763195,69.7961373 C26.0059723,69.7961373 26.5974075,69.2301174 26.5974075,68.5318195 L26.5974075,64.2545706 C28.7337037,63.8654901 33.1336575,62.4478042 37.4867824,57.2950079 L45.7381944,60.5853664 L41.5380324,63.8011344 C40.214838,64.8143874 39.4558565,66.3257379 39.4558565,67.9476561 Z M47.9106251,71.3975857 C47.9106251,72.1876873 47.2389815,72.8304687 46.4134028,72.8304687 L42.0978704,72.8304687 L42.0978704,67.9478111 C42.0978704,67.0981611 42.4953472,66.3066639 43.1885417,65.7756906 L47.7178009,62.3079276 C47.8428935,62.6202465 47.9104629,62.9573772 47.9104629,63.3059834 L47.9104629,71.3975857 L47.9106251,71.3975857 Z" id="Shape" fill="#7F7F7F"></path>
            <path d="M23.6483333,35.7856342 C23.0170371,34.5318616 21.4945371,33.7214452 19.7693287,33.7214452 C18.0441204,33.7214452 16.5216204,34.5317064 15.8903241,35.7856342 C15.5737037,36.4146141 15.8498148,37.1702894 16.5071991,37.4734589 C17.1644213,37.7766284 17.9540277,37.5120723 18.2708101,36.8830924 C18.4252315,36.5763562 19.0030556,36.2500806 19.7694908,36.2500806 C20.5359259,36.2500806 21.113588,36.5762012 21.2681713,36.8830924 C21.4956713,37.3354431 21.9678472,37.5990688 22.4593056,37.5990688 C22.6516435,37.5990688 22.8470601,37.5585944 23.0317824,37.4734589 C23.6888425,37.1702894 23.9649537,36.4147691 23.6483333,35.7856342 Z" id="Shape" fill="#7F7F7F"></path>
            <path d="M34.6624768,35.7856342 C34.0313425,34.5318616 32.5088425,33.7214452 30.7834723,33.7214452 C29.0581019,33.7214452 27.5357639,34.5317064 26.9044676,35.7856342 C26.5876852,36.4147691 26.8639583,37.1702894 27.5213425,37.4734589 C28.1785648,37.7766284 28.9681713,37.5120723 29.2849537,36.8830924 C29.4393749,36.5763562 30.0171991,36.2500806 30.7836343,36.2500806 C31.5500695,36.2500806 32.1277315,36.5762012 32.2823148,36.8830924 C32.5098148,37.3354431 32.9819908,37.5990688 33.4734491,37.5990688 C33.6657871,37.5990688 33.8612037,37.5585944 34.0459259,37.4734589 C34.7029861,37.1702894 34.9792592,36.4147691 34.6624768,35.7856342 Z" id="Shape" fill="#7F7F7F"></path>
            <path d="M66.141412,0.00697832661 C56.8659259,0.00697832661 49.3198611,7.228771 49.3198611,16.1056676 C49.3198611,20.7633131 51.3806481,25.0968538 55.0125463,28.1584783 C53.1901157,31.0136995 51.2122917,32.6591888 51.1920371,32.6759368 C50.7568056,33.0316764 50.6104861,33.6152196 50.8295601,34.1212258 C51.0353472,34.5962173 51.5190277,34.9015578 52.0495371,34.9015578 C52.0842129,34.9015578 52.1192129,34.9001621 52.1543751,34.897681 C52.3716667,34.881088 57.3324305,34.4757248 61.7330324,31.6437648 C63.1672223,32.0159422 64.6471065,32.2045121 66.1415741,32.2045121 C75.4170601,32.2045121 82.9631251,24.9827195 82.9631251,16.1058228 C82.9629629,7.228771 75.4168981,0.00697832661 66.141412,0.00697832661 Z M66.141412,29.6757216 C64.6944213,29.6757216 63.2641204,29.4665269 61.8902084,29.0537201 C61.4903009,28.9336929 61.0544213,29.0020804 60.7157639,29.2388783 C59.0892361,30.375105 57.303912,31.1084496 55.7708796,31.5780134 C56.4566204,30.7123908 57.1890277,29.6718448 57.8755787,28.4706421 C58.1879861,27.9240065 58.0377777,27.241061 57.5215277,26.861285 C53.9883101,24.2636417 51.9620371,20.3432177 51.9620371,16.1056676 C51.9620371,8.62304066 58.3228009,2.53561374 66.141412,2.53561374 C73.9600232,2.53561374 80.3207871,8.62304066 80.3207871,16.1056676 C80.3207871,23.5882947 73.9600232,29.6757216 66.141412,29.6757216 Z" id="Shape" fill="#7F7F7F"></path>
            <path d="M67.5504861,22.9327973 L67.462338,22.9327973 L67.462338,14.6727846 L67.5504861,14.6727846 C68.2801389,14.6727846 68.8715741,14.1067648 68.8715741,13.4084669 C68.8715741,12.710169 68.2801389,12.1441492 67.5504861,12.1441492 L64.7321759,12.1441492 C64.0025232,12.1441492 63.411088,12.710169 63.411088,13.4084669 C63.411088,14.1067648 64.0025232,14.6727846 64.7321759,14.6727846 L64.8203241,14.6727846 L64.8203241,22.9327973 L64.7321759,22.9327973 C64.0025232,22.9327973 63.411088,23.4988171 63.411088,24.1971149 C63.411088,24.8954128 64.0025232,25.4614326 64.7321759,25.4614326 L67.5504861,25.4614326 C68.2801389,25.4614326 68.8715741,24.8954128 68.8715741,24.1971149 C68.8715741,23.4989721 68.2801389,22.9327973 67.5504861,22.9327973 Z" id="Shape" fill="#7F7F7F"></path>
        </g>
    </g>
</svg>