<?xml version="1.0" encoding="UTF-8"?>
<svg width="110px" height="110px" viewBox="0 0 110 110" version="1.1" xmlns="http://www.w3.org/2000/svg" xmlns:xlink="http://www.w3.org/1999/xlink">
    <!-- Generator: Sketch 51 (57462) - http://www.bohemiancoding.com/sketch -->
    <title>FAQ / orange@1x</title>
    <desc>Created with Sketch.</desc>
    <defs></defs>
    <g id="FAQ-/-orange" stroke="none" stroke-width="1" fill="none" fill-rule="evenodd">
        <g id="FAQ@1x" transform="translate(18.000000, 13.000000)" fill-rule="nonzero">
            <g id="Group">
                <g id="Group-2" transform="translate(0.000000, 34.360181)">
                    <path d="M64.1517857,7.10769231 C64.1517857,7.10769231 64.1517857,5.42769231 64.1517857,1.03384615 C62.6785714,1.03384615 61.0714286,1.03384615 59.5982143,1.03384615 C59.5982143,5.42769231 59.5982143,4.91076923 59.5982143,7.10769231 C59.5982143,10.7261538 64.1517857,9.04615385 64.1517857,13.9569231 C65.3571429,13.6984615 66.5625,13.3107692 66.5625,13.3107692 L68.8392857,17.7046154 C70.9821429,6.72 64.1517857,7.10769231 64.1517857,7.10769231 Z" id="Shape-Copy-2" fill="#E8E8E8"></path>
                    <path d="M66.4285714,13.44 C66.4285714,13.44 65.4910714,13.6984615 64.0178571,14.0861538 L64.0178571,22.3569231 C64.0178571,26.2338462 62.2767857,29.5938462 59.4642857,31.7907692 C57.9910714,32.9538462 56.1160714,33.8584615 54.1071429,34.2461538 C54.1071429,34.2461538 54.1071429,34.2461538 54.1071429,34.2461538 C54.2410714,34.2461538 54.5089286,34.3753846 54.6428571,34.3753846 C54.6428571,34.3753846 54.6428571,34.3753846 54.6428571,34.3753846 C54.7767857,34.3753846 55.0446429,34.3753846 55.1785714,34.3753846 C55.1785714,34.3753846 55.1785714,34.3753846 55.1785714,34.3753846 C55.3125,34.3753846 55.4464286,34.3753846 55.7142857,34.3753846 C55.7142857,34.3753846 55.7142857,34.3753846 55.8482143,34.3753846 C55.9821429,34.3753846 56.25,34.3753846 56.3839286,34.3753846 C59.3303571,34.3753846 62.0089286,33.3415385 64.0178571,31.6615385 C66.8303571,29.4646154 68.5714286,25.9753846 68.5714286,22.2276923 L68.5714286,17.7046154 L66.4285714,13.44 Z" id="Shape-Copy-4" fill="#E8E8E8"></path>
                    <path d="M68.7053571,36.1846154 L64.1517857,36.1846154 C66.6964286,36.1846154 68.7053571,38.2523077 68.7053571,40.7076923 L68.7053571,46.7815385 L73.2589286,46.7815385 L73.2589286,40.7076923 C73.2589286,38.2523077 71.25,36.1846154 68.7053571,36.1846154 Z" id="Shape-Copy-5" fill="#E8E8E8"></path>
                    <path d="M19.4196429,1.68 C24.1071429,2.58461538 28.3928571,6.46153846 28.7946429,17.7046154 L30.4017857,18.2215385 L33.4821429,19.2553846 C33.3482143,2.84307692 25.5803571,0.775384615 19.4196429,1.68 Z" id="Shape-Copy-8" fill="#E8E8E8"></path>
                    <path d="M25.7142857,16.5415385 L25.7142857,22.3569231 C25.7142857,26.88 23.3035714,30.7569231 19.5535714,32.8246154 C18.3482143,33.4707692 17.1428571,33.9876923 15.6696429,34.2461538 C16.4732143,34.3753846 17.1428571,34.5046154 17.9464286,34.5046154 C20.2232143,34.5046154 22.2321429,33.8584615 24.1071429,32.8246154 C27.7232143,30.7569231 30.2678571,26.7507692 30.2678571,22.3569231 L30.2678571,18.2215385 L25.7142857,16.5415385 Z" id="Shape-Copy-9" fill="#E8E8E8"></path>
                    <path d="M30.2678571,36.1846154 L25.7142857,36.1846154 C28.2589286,36.1846154 30.2678571,38.2523077 30.2678571,40.7076923 L30.2678571,46.7815385 L34.8214286,46.7815385 L34.8214286,40.7076923 C34.8214286,38.2523077 32.8125,36.1846154 30.2678571,36.1846154 Z" id="Shape-Copy-10" fill="#E8E8E8"></path>
                    <path d="M74.5982143,40.7076923 C74.5982143,37.6061538 72.0535714,35.0215385 68.8392857,35.0215385 L65.3571429,35.0215385 L65.3571429,32.4369231 C68.1696429,29.9815385 69.9107143,26.3630769 69.9107143,22.4861538 L69.9107143,18.0923077 C70.8482143,13.5692308 70.4464286,10.3384615 68.7053571,8.27076923 C67.6339286,6.97846154 66.2946429,6.46153846 65.3571429,6.33230769 L65.3571429,1.16307692 C65.3571429,0.516923077 64.8214286,0 64.1517857,0 C63.75,0 63.2142857,0 62.8125,0 C62.2767857,0 61.875,0 61.3392857,0 C55.8482143,0 49.5535714,0.387692308 45.8035714,4.52307692 C43.125,7.49538462 42.1875,11.8892308 42.9910714,17.9630769 L42.9910714,22.3569231 C42.9910714,26.3630769 44.7321429,29.9815385 47.5446429,32.4369231 L47.5446429,35.0215385 L44.1964286,35.0215385 C40.9821429,35.0215385 38.4375,37.6061538 38.4375,40.7076923 L38.4375,46.7815385 C38.4375,47.4276923 38.9732143,47.9446154 39.6428571,47.9446154 L44.1964286,47.9446154 L51.8303571,47.9446154 L73.3928571,47.9446154 C74.0625,47.9446154 74.5982143,47.4276923 74.5982143,46.7815385 L74.5982143,40.7076923 C74.5982143,40.7076923 74.5982143,40.7076923 74.5982143,40.7076923 Z M62.9464286,35.5384615 L59.4642857,37.8646154 L57.5892857,36.96 L57.5892857,35.6676923 C59.4642857,35.5384615 61.3392857,34.8923077 62.9464286,33.9876923 L62.9464286,35.5384615 Z M47.5446429,6.07384615 C50.625,2.58461538 56.25,2.32615385 61.3392857,2.32615385 C61.875,2.32615385 62.2767857,2.32615385 62.8125,2.32615385 C62.9464286,2.32615385 62.9464286,2.32615385 63.0803571,2.32615385 L63.0803571,7.23692308 C63.0803571,7.49538462 63.2142857,7.88307692 63.4821429,8.01230769 C63.75,8.27076923 64.0178571,8.4 64.2857143,8.27076923 C64.4196429,8.27076923 65.8928571,8.27076923 66.9642857,9.56307692 C67.7678571,10.4676923 68.1696429,12.0184615 68.1696429,13.8276923 L67.6339286,12.9230769 C67.3660714,12.4061538 66.8303571,12.1476923 66.2946429,12.4061538 C66.1607143,12.4061538 59.3303571,14.6030769 55.4464286,14.6030769 C51.6964286,14.6030769 48.2142857,12.5353846 48.2142857,12.5353846 C47.6785714,12.2769231 47.0089286,12.4061538 46.7410714,12.7938462 L45.2678571,14.8615385 C45,10.8553846 45.8035714,8.01230769 47.5446429,6.07384615 Z M45.4017857,22.4861538 L45.4017857,18.3507692 L47.9464286,14.9907692 C49.4196429,15.6369231 52.2321429,16.9292308 55.4464286,16.9292308 C58.7946429,16.9292308 63.8839286,15.5076923 66.0267857,14.9907692 L67.6339286,18.2215385 L67.6339286,22.4861538 C67.6339286,28.56 62.6785714,33.4707692 56.5178571,33.4707692 C50.3571429,33.4707692 45.4017857,28.56 45.4017857,22.4861538 Z M55.3125,35.6676923 L55.3125,36.8307692 L52.7678571,37.8646154 L49.8214286,35.5384615 L49.8214286,33.9876923 C51.5625,34.8923077 53.4375,35.5384615 55.3125,35.6676923 Z M45.4017857,45.6184615 L45.4017857,43.2923077 L50.7589286,43.2923077 L50.7589286,45.6184615 L45.4017857,45.6184615 Z M72.1875,45.6184615 L53.0357143,45.6184615 L53.0357143,42.2584615 C53.0357143,41.6123077 52.5,41.0953846 51.8303571,41.0953846 L44.1964286,41.0953846 C43.5267857,41.0953846 42.9910714,41.6123077 42.9910714,42.2584615 L42.9910714,45.6184615 L40.7142857,45.6184615 L40.7142857,40.7076923 C40.7142857,38.7692308 42.3214286,37.3476923 44.1964286,37.3476923 L48.3482143,37.3476923 L51.8303571,40.1907692 C51.8303571,40.1907692 51.8303571,40.1907692 51.8303571,40.1907692 C51.8303571,40.1907692 51.8303571,40.1907692 51.9642857,40.32 C51.9642857,40.32 51.9642857,40.32 51.9642857,40.32 C51.9642857,40.32 52.0982143,40.32 52.0982143,40.32 C52.0982143,40.32 52.0982143,40.32 52.2321429,40.32 C52.2321429,40.32 52.3660714,40.32 52.3660714,40.32 C52.3660714,40.32 52.3660714,40.32 52.3660714,40.32 C52.3660714,40.32 52.5,40.32 52.5,40.32 C52.5,40.32 52.6339286,40.32 52.6339286,40.32 C52.6339286,40.32 52.6339286,40.32 52.6339286,40.32 C52.6339286,40.32 52.6339286,40.32 52.7678571,40.32 C52.7678571,40.32 52.7678571,40.32 52.7678571,40.32 C52.7678571,40.32 52.7678571,40.32 52.9017857,40.32 C52.9017857,40.32 52.9017857,40.32 52.9017857,40.32 C52.9017857,40.32 52.9017857,40.32 52.9017857,40.32 L56.25,39.0276923 L58.9285714,40.32 C58.9285714,40.32 58.9285714,40.32 58.9285714,40.32 C58.9285714,40.32 58.9285714,40.32 58.9285714,40.32 C58.9285714,40.32 58.9285714,40.32 59.0625,40.32 C59.0625,40.32 59.0625,40.32 59.0625,40.32 C59.0625,40.32 59.1964286,40.32 59.1964286,40.32 C59.1964286,40.32 59.1964286,40.32 59.1964286,40.32 C59.1964286,40.32 59.3303571,40.32 59.3303571,40.32 C59.3303571,40.32 59.4642857,40.32 59.4642857,40.32 C59.4642857,40.32 59.4642857,40.32 59.5982143,40.32 C59.5982143,40.32 59.5982143,40.32 59.7321429,40.32 C59.7321429,40.32 59.7321429,40.32 59.8660714,40.32 C59.8660714,40.32 59.8660714,40.32 60,40.32 C60,40.32 60,40.32 60,40.32 C60,40.32 60,40.32 60.1339286,40.32 C60.1339286,40.32 60.1339286,40.32 60.1339286,40.32 L64.4196429,37.4769231 L68.7053571,37.4769231 C70.5803571,37.4769231 72.1875,39.0276923 72.1875,40.8369231 C72.1875,40.8369231 72.1875,40.8369231 72.1875,40.8369231 L72.1875,45.6184615 Z" id="Shape-Copy-11" fill="#7F7F7F"></path>
                    <path d="M30.4017857,34.8923077 L25.4464286,34.8923077 L25.4464286,33.4707692 C29.1964286,31.1446154 31.6071429,27.0092308 31.6071429,22.3569231 L31.6071429,19.9015385 L33.0803571,20.4184615 C33.2142857,20.4184615 33.3482143,20.5476923 33.4821429,20.5476923 C33.75,20.5476923 33.8839286,20.4184615 34.1517857,20.2892308 C34.4196429,20.0307692 34.6875,19.7723077 34.6875,19.3846154 C34.6875,12.5353846 33.3482143,7.49538462 30.6696429,4.26461538 C28.5267857,1.68 25.5803571,0.387692308 21.8303571,0.387692308 C17.5446429,0.387692308 13.5267857,2.19692308 12.0535714,2.97230769 L9.375,1.68 C8.97321429,1.55076923 8.57142857,1.55076923 8.30357143,1.68 C7.76785714,1.93846154 3.75,4.52307692 4.55357143,14.8615385 L4.55357143,22.4861538 C4.55357143,27.1384615 6.96428571,31.2738462 10.7142857,33.6 L10.7142857,34.8923077 L5.75892857,34.8923077 C2.54464286,34.8923077 0,37.4769231 0,40.5784615 L0,46.6523077 C0,47.2984615 0.535714286,47.8153846 1.20535714,47.8153846 L34.9553571,47.8153846 C35.625,47.8153846 36.1607143,47.2984615 36.1607143,46.6523077 L36.1607143,40.5784615 C36.1607143,40.5784615 36.1607143,40.5784615 36.1607143,40.5784615 C36.1607143,37.4769231 33.4821429,34.8923077 30.4017857,34.8923077 Z M8.97321429,4.00615385 L11.5178571,5.16923077 C11.9196429,5.29846154 12.3214286,5.29846154 12.5892857,5.16923077 C12.5892857,5.16923077 17.1428571,2.58461538 21.6964286,2.58461538 C28.2589286,2.58461538 31.7410714,7.62461538 32.1428571,17.7046154 L12.3214286,10.7261538 C12.1875,10.5969231 12.0535714,10.5969231 11.9196429,10.5969231 C11.7857143,10.5969231 11.5178571,10.5969231 11.3839286,10.7261538 L6.83035714,12.9230769 C6.69642857,7.23692308 8.30357143,4.78153846 8.97321429,4.00615385 Z M6.96428571,22.3569231 L6.96428571,15.5076923 L11.9196429,12.9230769 L29.1964286,18.9969231 L29.1964286,22.3569231 C29.1964286,28.4307692 24.2410714,33.3415385 18.0803571,33.3415385 C11.9196429,33.3415385 6.96428571,28.4307692 6.96428571,22.3569231 Z M18.0803571,35.6676923 C19.8214286,35.6676923 21.5625,35.28 23.0357143,34.7630769 L23.0357143,36.0553846 C23.0357143,38.7692308 20.7589286,40.9661538 18.0803571,40.9661538 C15.4017857,40.9661538 13.125,38.7692308 13.125,36.0553846 L13.125,34.7630769 C14.5982143,35.4092308 16.3392857,35.6676923 18.0803571,35.6676923 Z M33.75,45.6184615 L2.27678571,45.6184615 L2.27678571,40.7076923 C2.27678571,38.7692308 3.88392857,37.3476923 5.75892857,37.3476923 L10.8482143,37.3476923 C11.3839286,40.8369231 14.4642857,43.4215385 18.0803571,43.4215385 C21.6964286,43.4215385 24.7767857,40.8369231 25.3125,37.3476923 L30.4017857,37.3476923 C32.2767857,37.3476923 33.8839286,38.8984615 33.8839286,40.7076923 C33.8839286,40.7076923 33.8839286,40.7076923 33.8839286,40.7076923 L33.75,45.6184615 Z" id="Shape-Copy-12" fill="#7F7F7F"></path>
                </g>
                <path d="M70.8482143,0 L46.2053571,0 C44.1964286,0 42.4553571,1.68 42.4553571,3.61846154 L42.4553571,18.2215385 C42.4553571,20.2892308 44.0625,21.84 46.2053571,21.84 L48.6160714,21.84 L48.6160714,25.4584615 C48.6160714,26.1046154 49.1517857,26.6215385 49.8214286,26.6215385 C50.0892857,26.6215385 50.3571429,26.4923077 50.4910714,26.3630769 L57.5892857,21.7107692 L70.7142857,21.7107692 C72.7232143,21.7107692 74.4642857,20.0307692 74.4642857,18.0923077 L74.4642857,3.61846154 C74.5982143,1.68 72.8571429,0 70.8482143,0 Z M72.0535714,18.2215385 C72.0535714,18.8676923 71.5178571,19.3846154 70.8482143,19.3846154 L57.3214286,19.3846154 C57.0535714,19.3846154 56.7857143,19.5138462 56.6517857,19.6430769 L51.1607143,23.2615385 L51.1607143,20.6769231 C51.1607143,20.0307692 50.625,19.5138462 49.9553571,19.5138462 L46.2053571,19.5138462 C45.5357143,19.5138462 45,18.9969231 45,18.3507692 L45,3.61846154 C45,2.97230769 45.5357143,2.45538462 46.2053571,2.45538462 L70.8482143,2.45538462 C71.5178571,2.45538462 72.0535714,2.97230769 72.0535714,3.61846154 L72.0535714,18.2215385 Z" id="Shape_4_" fill="#7F7F7F"></path>
                <path d="M29.0625,3.74769231 L4.41964286,3.74769231 C2.41071429,3.74769231 0.669642857,5.42769231 0.669642857,7.36615385 L0.669642857,21.9692308 C0.669642857,24.0369231 2.27678571,25.5876923 4.41964286,25.5876923 L17.5446429,25.5876923 L24.6428571,30.24 C25.1785714,30.6276923 25.9821429,30.4984615 26.3839286,29.8523077 C26.5178571,29.5938462 26.6517857,29.4646154 26.6517857,29.2061538 L26.6517857,25.5876923 L29.0625,25.5876923 C31.0714286,25.5876923 32.8125,23.9076923 32.8125,21.9692308 L32.8125,7.49538462 C32.6785714,5.42769231 31.0714286,3.74769231 29.0625,3.74769231 Z M30.2678571,22.0984615 C30.2678571,22.7446154 29.7321429,23.2615385 29.0625,23.2615385 L25.3125,23.2615385 C24.6428571,23.2615385 24.1071429,23.7784615 24.1071429,24.4246154 L24.1071429,27.0092308 L18.6160714,23.3907692 C18.3482143,23.2615385 18.2142857,23.1323077 17.9464286,23.1323077 L4.41964286,23.1323077 C3.75,23.1323077 3.21428571,22.6153846 3.21428571,21.9692308 L3.21428571,7.49538462 C3.21428571,6.84923077 3.75,6.33230769 4.41964286,6.33230769 L29.0625,6.33230769 C29.7321429,6.33230769 30.2678571,6.84923077 30.2678571,7.49538462 L30.2678571,22.0984615 Z" id="Shape_5_" fill="#7F7F7F"></path>
                <path d="M59.7321429,13.1815385 C59.7321429,13.8276923 59.1964286,14.3446154 58.5267857,14.3446154 C57.8571429,14.3446154 57.3214286,13.8276923 57.3214286,13.1815385 L57.3214286,12.1476923 C57.3214286,12.0184615 57.3214286,11.76 57.4553571,11.6307692 C57.5892857,11.1138462 58.125,10.8553846 58.6607143,10.8553846 C59.8660714,10.8553846 60.8035714,9.95076923 60.8035714,8.78769231 C60.8035714,7.62461538 59.8660714,6.72 58.6607143,6.72 C57.4553571,6.72 56.5178571,7.62461538 56.5178571,8.78769231 C56.5178571,9.43384615 55.9821429,10.08 55.3125,10.08 C54.6428571,10.08 54.1071429,9.56307692 54.1071429,8.78769231 C54.1071429,6.33230769 56.1160714,4.26461538 58.6607143,4.26461538 C61.2053571,4.26461538 63.2142857,6.33230769 63.2142857,8.78769231 C63.0803571,10.8553846 61.6071429,12.6646154 59.7321429,13.1815385 Z M58.5267857,14.7323077 C59.1964286,14.7323077 59.7321429,15.2492308 59.7321429,16.0246154 C59.7321429,16.6707692 59.1964286,17.3169231 58.5267857,17.3169231 C57.8571429,17.3169231 57.3214286,16.8 57.3214286,16.0246154 C57.3214286,15.3784615 57.8571429,14.7323077 58.5267857,14.7323077 Z" id="Combined-Shape-Copy-2" fill="#7F7F7F"></path>
                <path d="M10.4464286,8.65846154 C11.1160714,8.65846154 11.6517857,9.17538462 11.6517857,9.82153846 C11.6517857,10.4676923 11.1160714,10.9846154 10.4464286,10.9846154 C9.77678571,10.9846154 9.24107143,10.4676923 9.24107143,9.82153846 C9.24107143,9.17538462 9.77678571,8.65846154 10.4464286,8.65846154 Z" id="Rectangle-path" fill="#7F7F7F"></path>
                <path d="M15.4017857,8.65846154 L25.1785714,8.65846154 C25.8482143,8.65846154 26.3839286,9.17538462 26.3839286,9.82153846 C26.3839286,10.4676923 25.8482143,10.9846154 25.1785714,10.9846154 L15.4017857,10.9846154 C14.7321429,10.9846154 14.1964286,10.4676923 14.1964286,9.82153846 C14.1964286,9.17538462 14.7321429,8.65846154 15.4017857,8.65846154 Z" id="Rectangle-path_1_" fill="#7F7F7F"></path>
                <path d="M8.03571429,13.5692308 L25.1785714,13.5692308 C25.8482143,13.5692308 26.3839286,14.0861538 26.3839286,14.7323077 C26.3839286,15.3784615 25.8482143,15.8953846 25.1785714,15.8953846 L8.03571429,15.8953846 C7.36607143,15.8953846 6.83035714,15.3784615 6.83035714,14.7323077 C6.69642857,14.0861538 7.36607143,13.5692308 8.03571429,13.5692308 Z" id="Rectangle-path_2_" fill="#7F7F7F"></path>
                <path d="M8.03571429,18.3507692 L20.2232143,18.3507692 C20.8928571,18.3507692 21.4285714,18.8676923 21.4285714,19.5138462 C21.4285714,20.16 20.8928571,20.6769231 20.2232143,20.6769231 L8.03571429,20.6769231 C7.36607143,20.6769231 6.83035714,20.16 6.83035714,19.5138462 C6.69642857,18.9969231 7.36607143,18.3507692 8.03571429,18.3507692 Z" id="Rectangle-path_3_" fill="#7F7F7F"></path>
            </g>
            <path d="M55.0446429,55.5692308 C54.5089286,54.5353846 53.1696429,53.76 51.8303571,53.76 C50.3571429,53.76 49.1517857,54.4061538 48.6160714,55.5692308 C48.3482143,56.0861538 48.6160714,56.7323077 49.1517857,56.9907692 C49.6875,57.2492308 50.3571429,56.9907692 50.625,56.4738462 C50.7589286,56.2153846 51.2946429,55.9569231 51.8303571,55.9569231 C52.5,55.9569231 52.9017857,56.2153846 53.0357143,56.4738462 C53.1696429,56.8615385 53.5714286,57.12 53.9732143,57.12 C54.1071429,57.12 54.2410714,57.12 54.5089286,56.9907692 C55.0446429,56.7323077 55.3125,56.0861538 55.0446429,55.5692308 Z" id="Path" fill="#7F7F7F"></path>
            <path d="M64.2857143,55.5692308 C63.75,54.5353846 62.4107143,53.76 61.0714286,53.76 C59.5982143,53.76 58.3928571,54.4061538 57.8571429,55.5692308 C57.5892857,56.0861538 57.8571429,56.7323077 58.3928571,56.9907692 C58.9285714,57.2492308 59.5982143,56.9907692 59.8660714,56.4738462 C60,56.2153846 60.5357143,55.9569231 61.0714286,55.9569231 C61.6071429,55.9569231 62.1428571,56.2153846 62.2767857,56.4738462 C62.4107143,56.8615385 62.8125,57.12 63.2142857,57.12 C63.3482143,57.12 63.4821429,57.12 63.75,56.9907692 C64.2857143,56.7323077 64.5535714,56.0861538 64.2857143,55.5692308 Z" id="Path_1_" fill="#7F7F7F"></path>
            <path d="M16.6071429,55.5692308 C16.0714286,54.5353846 14.7321429,53.76 13.3928571,53.76 C12.0535714,53.76 10.7142857,54.4061538 10.1785714,55.5692308 C9.91071429,56.0861538 10.1785714,56.7323077 10.7142857,56.9907692 C11.25,57.2492308 11.9196429,56.9907692 12.1875,56.4738462 C12.3214286,56.2153846 12.8571429,55.9569231 13.3928571,55.9569231 C13.9285714,55.9569231 14.4642857,56.2153846 14.5982143,56.4738462 C14.7321429,56.8615385 15.1339286,57.12 15.5357143,57.12 C15.6696429,57.12 15.8035714,57.12 16.0714286,56.9907692 C16.7410714,56.7323077 16.875,56.0861538 16.6071429,55.5692308 Z" id="Path_2_" fill="#7F7F7F"></path>
            <path d="M25.8482143,55.5692308 C25.3125,54.5353846 23.9732143,53.76 22.6339286,53.76 C21.1607143,53.76 19.9553571,54.4061538 19.4196429,55.5692308 C19.1517857,56.0861538 19.4196429,56.7323077 19.9553571,56.9907692 C20.4910714,57.2492308 21.1607143,56.9907692 21.4285714,56.4738462 C21.5625,56.2153846 22.0982143,55.9569231 22.6339286,55.9569231 C23.1696429,55.9569231 23.7053571,56.2153846 23.8392857,56.4738462 C23.9732143,56.8615385 24.375,57.12 24.7767857,57.12 C24.9107143,57.12 25.0446429,57.12 25.3125,56.9907692 C25.8482143,56.7323077 26.1160714,56.0861538 25.8482143,55.5692308 Z" id="Path_3_" fill="#7F7F7F"></path>
        </g>
    </g>
</svg>