<?xml version="1.0" encoding="UTF-8"?>
<svg width="110px" height="110px" viewBox="0 0 110 110" version="1.1" xmlns="http://www.w3.org/2000/svg" xmlns:xlink="http://www.w3.org/1999/xlink">
    <!-- Generator: Sketch 51 (57462) - http://www.bohemiancoding.com/sketch -->
    <title>likes / orange@1x</title>
    <desc>Created with Sketch.</desc>
    <defs></defs>
    <g id="likes-/-orange" stroke="none" stroke-width="1" fill="none" fill-rule="evenodd">
        <g id="likes@1x" transform="translate(27.000000, 14.000000)" fill-rule="nonzero">
            <path d="M3.71162791,39.8822581 L3.71162791,43.3225806 L29.8255814,43.3225806 C29.9581395,41.7935484 31.0186047,40.3919355 33.1395349,40.3919355 C35.2604651,40.3919355 36.3209302,41.7935484 36.4534884,43.3225806 L54.3488372,43.3225806 L54.3488372,39.8822581 L3.71162791,39.8822581 Z" id="Shape" fill="#E8E8E8"></path>
            <path d="M19.2209302,7.00806452 L17.2325581,9.55645161 L3.97674419,9.55645161 C3.97674419,9.55645161 3.84418605,9.55645161 3.84418605,9.68387097 L3.84418605,22.0435484 C3.84418605,22.0435484 3.84418605,22.1709677 3.97674419,22.1709677 L17.8953488,22.1709677 L17.8953488,14.2709677 L20.5465116,10.9580645 L20.5465116,22.1709677 L52.8906977,22.1709677 C52.8906977,22.1709677 53.0232558,22.1709677 53.0232558,22.0435484 L53.0232558,9.68387097 C53.0232558,9.68387097 53.0232558,9.55645161 52.8906977,9.55645161 L21.6069767,9.55645161 L23.5953488,7.00806452 L52.8906977,7.00806452 C54.3488372,7.00806452 55.5418605,8.15483871 55.5418605,9.68387097 L55.5418605,22.0435484 C55.5418605,23.4451613 54.3488372,24.7193548 52.8906977,24.7193548 L3.97674419,24.7193548 C2.51860465,24.7193548 1.3255814,23.5725806 1.3255814,22.0435484 L1.3255814,9.68387097 C1.3255814,8.28225806 2.51860465,7.00806452 3.97674419,7.00806452 L19.2209302,7.00806452 Z" id="Shape-Copy-13" fill="#7F7F7F"></path>
            <g id="like-_x28_1_x29_" transform="translate(0.530891, 27.269889)">
                <path d="M52.3604651,0.25483871 L3.44651163,0.25483871 C1.98837209,0.25483871 0.795348837,1.4016129 0.795348837,2.93064516 L0.795348837,15.2903226 C0.795348837,16.6919355 1.98837209,17.966129 3.44651163,17.966129 L27.9697674,17.966129 C26.5116279,21.6612903 23.4627907,25.2290323 20.4139535,25.9935484 C19.7511628,24.4645161 18.2930233,23.4451613 16.4372093,23.4451613 L8.08604651,23.4451613 C7.29069767,23.4451613 6.62790698,24.0822581 6.62790698,24.8467742 C6.62790698,25.6112903 7.29069767,26.2483871 8.08604651,26.2483871 L15.9069767,26.2483871 C17.1,26.2483871 18.027907,26.8854839 18.027907,27.65 L18.027907,46.7629032 C18.027907,47.5274194 17.1,48.1645161 15.9069767,48.1645161 L8.08604651,48.1645161 C7.29069767,47.7822581 6.62790698,48.4193548 6.62790698,49.183871 C6.62790698,49.9483871 7.29069767,50.5854839 8.08604651,50.5854839 L16.5697674,50.5854839 C18.2930233,50.5854839 19.7511628,49.566129 20.4139535,48.2919355 L25.3186047,49.8209677 C26.9093023,50.3306452 28.6325581,50.5854839 30.2232558,50.5854839 L42.1534884,50.5854839 C44.5395349,50.5854839 46.3953488,48.8016129 46.3953488,46.5080645 C46.3953488,45.9983871 46.2627907,45.4887097 46.1302326,44.9790323 C47.9860465,44.4693548 49.3116279,42.9403226 49.3116279,41.0290323 C49.3116279,40.0096774 48.9139535,38.9903226 48.2511628,38.3532258 C48.9139535,37.5887097 49.3116279,36.6967742 49.3116279,35.6774194 C49.3116279,34.6580645 48.9139535,33.6387097 48.2511628,33.0016129 C48.9139535,32.2370968 49.3116279,31.3451613 49.3116279,30.3258065 C49.3116279,28.0322581 47.455814,26.2483871 45.0697674,26.2483871 L36.8511628,26.2483871 C37.6465116,23.8274194 38.044186,20.6419355 38.044186,19.3677419 L38.044186,18.2209677 L52.4930233,18.2209677 C53.9511628,18.2209677 55.144186,17.0741935 55.144186,15.5451613 L55.144186,3.18548387 C55.0116279,1.4016129 53.8186047,0.25483871 52.3604651,0.25483871 Z M17.3651163,15.2903226 L3.44651163,15.2903226 C3.44651163,15.2903226 3.31395349,15.2903226 3.31395349,15.1629032 L3.31395349,2.80322581 C3.31395349,2.80322581 3.31395349,2.67580645 3.44651163,2.67580645 L17.3651163,2.67580645 L17.3651163,15.2903226 Z M44.9372093,28.6693548 C45.7325581,28.6693548 46.3953488,29.3064516 46.3953488,30.0709677 C46.3953488,30.8354839 45.7325581,31.4725806 44.9372093,31.4725806 L42.1534884,31.4725806 C41.3581395,31.4725806 40.6953488,32.1096774 40.6953488,32.8741935 C40.6953488,33.6387097 41.3581395,34.2758065 42.1534884,34.2758065 L44.9372093,34.2758065 C45.7325581,34.2758065 46.3953488,34.9129032 46.3953488,35.6774194 C46.3953488,36.4419355 45.7325581,37.0790323 44.9372093,37.0790323 L42.1534884,37.0790323 C41.3581395,37.0790323 40.6953488,37.716129 40.6953488,38.4806452 C40.6953488,39.2451613 41.3581395,39.8822581 42.1534884,39.8822581 L44.9372093,39.8822581 C45.7325581,39.8822581 46.3953488,40.5193548 46.3953488,41.283871 C46.3953488,42.0483871 45.7325581,42.6854839 44.9372093,42.6854839 L42.1534884,42.6854839 C41.3581395,42.6854839 40.6953488,43.3225806 40.6953488,44.0870968 C40.6953488,44.8516129 41.3581395,45.4887097 42.1534884,45.4887097 C42.9488372,45.4887097 43.6116279,46.1258065 43.6116279,46.8903226 C43.6116279,47.6548387 42.9488372,48.2919355 42.1534884,48.2919355 L30.2232558,48.2919355 C28.8976744,48.2919355 27.4395349,48.0370968 26.1139535,47.6548387 L20.8116279,45.8709677 L20.8116279,28.5419355 C23.0651163,28.1596774 25.1860465,26.7580645 27.1744186,24.5919355 C29.1627907,22.4258065 30.6209302,19.4951613 31.2837209,16.9467742 L31.8139535,15.0354839 L32.0790698,15.0354839 C33.6697674,15.0354839 34.8627907,16.3096774 34.8627907,17.7112903 L34.8627907,19.1129032 C34.8627907,20.8967742 34.2,24.4645161 33.5372093,25.9935484 L30.6209302,25.9935484 C29.8255814,25.9935484 29.1627907,26.6306452 29.1627907,27.3951613 C29.1627907,28.1596774 29.8255814,28.7967742 30.6209302,28.7967742 L44.9372093,28.7967742 L44.9372093,28.6693548 Z M52.3604651,15.1629032 C52.3604651,15.1629032 52.3604651,15.2903226 52.3604651,15.1629032 L37.2488372,15.2903226 C36.3209302,13.3790323 34.3325581,12.1048387 32.0790698,12.1048387 L30.6209302,12.1048387 C29.9581395,12.1048387 29.427907,12.4870968 29.2953488,13.1241935 L28.8976744,15.2903226 L20.0162791,15.2903226 L20.0162791,2.80322581 L52.3604651,2.80322581 C52.3604651,2.80322581 52.4930233,2.80322581 52.4930233,2.93064516 L52.4930233,15.1629032 L52.3604651,15.1629032 Z" id="Shape" fill="#7F7F7F"></path>
                <path d="M26.2465116,47.1451613 L20.944186,45.3612903 L20.944186,28.5419355 C23.1976744,28.1596774 25.3186047,26.7580645 27.3069767,24.5919355 C25.7162791,28.1596774 24.9209302,32.2370968 24.9209302,36.5693548 C24.9209302,40.9016129 25.7162791,44.5967742 27.3069767,47.4 C26.7767442,47.2725806 26.5116279,47.2725806 26.2465116,47.1451613 Z" id="Path-Copy" fill="#E8E8E8"></path>
                <ellipse id="Oval" fill="#E8E8E8" cx="13.6534884" cy="43.7048387" rx="1.3255814" ry="1.27419355"></ellipse>
                <path d="M33.6697674,3.82258065 C32.8744186,3.82258065 32.344186,4.45967742 32.344186,5.22419355 L32.344186,8.02741935 C32.344186,8.79193548 33.0069767,9.42903226 33.6697674,9.42903226 C34.3325581,9.42903226 34.9953488,8.79193548 34.9953488,8.02741935 L34.9953488,5.22419355 C34.9953488,4.45967742 34.3325581,3.82258065 33.6697674,3.82258065 Z" id="Shape_1_" fill="#7F7F7F"></path>
                <path d="M27.572093,9.93870968 L25.5837209,8.02741935 C25.0534884,7.51774194 24.1255814,7.51774194 23.5953488,8.02741935 C23.0651163,8.53709677 23.0651163,9.42903226 23.5953488,9.93870968 L25.5837209,11.85 C26.1139535,12.3596774 27.0418605,12.3596774 27.572093,11.85 C28.1023256,11.3403226 28.1023256,10.4483871 27.572093,9.93870968 Z" id="Shape_2_" fill="#7F7F7F"></path>
                <path d="M43.744186,8.02741935 C43.2139535,7.51774194 42.2860465,7.51774194 41.755814,8.02741935 L39.7674419,9.93870968 C39.2372093,10.4483871 39.2372093,11.3403226 39.7674419,11.85 C40.2976744,12.3596774 41.2255814,12.3596774 41.755814,11.85 L43.744186,9.93870968 C44.4069767,9.42903226 44.4069767,8.53709677 43.744186,8.02741935 Z" id="Shape_3_" fill="#7F7F7F"></path>
            </g>
            <path d="M10.6046512,15.8 L21.872093,1.65645161 C22.2697674,1.14677419 23.0651163,1.01935484 23.5953488,1.4016129 C24.1255814,1.78387097 24.2581395,2.5483871 23.8604651,3.05806452 L11.6651163,18.3483871 C11.2674419,18.8580645 10.3395349,18.9854839 9.80930233,18.4758065 L5.96511628,14.9080645 C5.43488372,14.3983871 5.43488372,13.7612903 5.96511628,13.2516129 C6.49534884,12.7419355 7.15813953,12.7419355 7.68837209,13.2516129 L10.6046512,15.8 Z" id="Path-3" fill="#7F7F7F"></path>
        </g>
    </g>
</svg>