<?xml version="1.0" encoding="UTF-8"?>
<svg width="110px" height="110px" viewBox="0 0 110 110" version="1.1" xmlns="http://www.w3.org/2000/svg" xmlns:xlink="http://www.w3.org/1999/xlink">
    <!-- Generator: Sketch 51 (57462) - http://www.bohemiancoding.com/sketch -->
    <title>maps /gray@1x</title>
    <desc>Created with Sketch.</desc>
    <defs></defs>
    <g id="maps-/gray" stroke="none" stroke-width="1" fill="none" fill-rule="evenodd">
        <g id="maps@1x" transform="translate(15.000000, 14.000000)" fill-rule="nonzero">
            <path d="M34.1517857,21.3033333 L39.7767857,21.3033333 C39.7767857,24.8966667 38.4375,28.105 35.7589286,31.4416667 L18.4821429,51.3333333 L10.1785714,39.655 L14.0625,37.73 L18.8839286,41.8366667 L32.9464286,23.1 L34.1517857,21.3033333 Z" id="Combined-Shape" fill="#E8E8E8"></path>
            <g id="_x32_5-June">
                <g id="new-Home-page-responsive-v06---chat">
                    <g id="Group-5">
                        <g id="footer-Services">
                            <g id="Group-2">
                                <g id="maps-orange">
                                    <g id="Group">
                                        <path d="M13.7946429,73.2783333 L66.1607143,73.2783333 C67.2321429,73.2783333 68.0357143,74.0483333 68.0357143,75.075 C68.0357143,76.1016667 67.2321429,76.8716667 66.1607143,76.8716667 L13.7946429,76.8716667 C12.7232143,76.8716667 11.9196429,76.1016667 11.9196429,75.075 C11.9196429,74.0483333 12.7232143,73.2783333 13.7946429,73.2783333 Z" id="Rectangle" fill="#E8E8E8"></path>
                                        <path d="M49.2857143,22.0733333 C53.4375,31.6983333 55.5803571,39.0133333 55.5803571,43.7616667 C55.5803571,48.125 54.375,55.055 51.8303571,64.5516667 C51.2946429,66.605 51.5625,68.6583333 52.5,70.5833333 L53.7053571,72.765 C60,73.6633333 63.75,73.6633333 65.625,73.4066667 C67.5,73.15 69.6428571,72.2516667 71.9196429,70.84 L73.2589286,63.7816667 L68.7053571,59.4183333 C64.5535714,58.7766667 62.4107143,59.29 62.4107143,60.7016667 C62.4107143,62.1133333 62.0089286,60.06 61.2053571,54.4133333 L61.2053571,22.0733333 L49.2857143,22.0733333 Z" id="Path-4" fill="#E8E8E8"></path>
                                        <path d="M66.6964286,13.475 C62.9464286,13.475 59.8660714,16.2983333 59.8660714,19.7633333 L59.8660714,20.79 L34.1517857,20.79 C34.1517857,21.56 33.8839286,22.4583333 33.6160714,23.2283333 L60,23.2283333 L60,40.6816667 L44.1964286,26.0516667 C43.6607143,25.5383333 42.8571429,25.5383333 42.4553571,26.0516667 L34.4196429,33.495 L29.7321429,29.1316667 C29.1964286,29.7733333 28.5267857,30.2866667 27.7232143,30.5433333 L33.6160714,36.0616667 C34.1517857,36.575 34.9553571,36.575 35.3571429,36.0616667 L43.3928571,28.6183333 L60,44.0183333 L60,64.4233333 C60,67.375 62.6785714,69.8133333 65.8928571,69.8133333 C68.7053571,69.8133333 70.9821429,67.76 70.9821429,65.065 C70.9821429,64.4233333 70.4464286,63.91 69.6428571,63.91 C68.8392857,63.91 68.3035714,64.4233333 68.3035714,65.065 C68.3035714,66.3483333 67.2321429,67.375 65.7589286,67.375 C63.8839286,67.375 62.4107143,65.9633333 62.4107143,64.295 C62.4107143,62.1133333 64.2857143,60.3166667 66.6964286,60.3166667 C69.6428571,60.3166667 72.1875,62.6266667 72.1875,65.3216667 C72.1875,68.915 69.1071429,71.7383333 65.3571429,71.7383333 L53.5714286,71.7383333 L56.3839286,69.1716667 C56.9196429,68.6583333 56.9196429,68.0166667 56.3839286,67.5033333 C55.8482143,66.99 55.0446429,66.99 54.6428571,67.5033333 L50.0892857,71.7383333 L49.1517857,71.7383333 C49.1517857,71.7383333 49.1517857,71.7383333 49.1517857,71.7383333 L42.4553571,65.45 C41.9196429,64.9366667 41.1160714,64.9366667 40.7142857,65.45 C40.1785714,65.9633333 40.1785714,66.605 40.7142857,67.1183333 L45.6696429,71.7383333 L13.5267857,71.7383333 L29.4642857,57.1083333 L33.4821429,60.83 C34.0178571,61.3433333 34.8214286,61.3433333 35.2232143,60.83 C35.7589286,60.3166667 35.7589286,59.675 35.2232143,59.1616667 L30.4017857,54.67 C29.8660714,54.1566667 29.0625,54.1566667 28.6607143,54.67 L11.9196429,70.07 L11.9196429,57.75 C12.0535714,57.75 12.0535714,57.75 12.0535714,57.6216667 L19.2857143,50.82 C19.8214286,50.3066667 19.8214286,49.665 19.2857143,49.1516667 C18.75,48.6383333 17.9464286,48.6383333 17.5446429,49.1516667 L11.9196429,54.4133333 L11.9196429,39.655 C11.9196429,39.655 12.0535714,39.5266667 12.0535714,39.5266667 L14.4642857,37.2166667 C13.6607143,36.96 12.8571429,36.4466667 12.3214286,35.805 L11.7857143,36.3183333 L11.7857143,35.1633333 C11.1160714,34.265 10.8482143,33.2383333 10.5803571,32.2116667 C10.4464286,32.0833333 10.3125,31.8266667 10.1785714,31.57 C9.77678571,31.3133333 9.375,31.185 9.10714286,30.8 L9.10714286,73.15 C9.10714286,73.7916667 9.64285714,74.305 10.4464286,74.305 L65.0892857,74.305 C70.3125,74.305 74.4642857,70.3266667 74.4642857,65.5783333 L74.4642857,20.9183333 C74.7321429,16.8116667 71.1160714,13.475 66.6964286,13.475 Z M72.1875,60.06 C70.7142857,58.7766667 68.8392857,58.0066667 66.6964286,58.0066667 C65.0892857,58.0066667 63.6160714,58.52 62.4107143,59.4183333 L62.4107143,19.7633333 C62.4107143,17.5816667 64.2857143,15.785 66.6964286,15.785 C69.6428571,15.785 72.1875,18.095 72.1875,20.79 L72.1875,60.06 Z" id="Shape" fill="#7F7F7F"></path>
                                        <path d="M24.7767857,44.1466667 C25.0446429,44.4033333 25.3125,44.5316667 25.7142857,44.5316667 C26.1160714,44.5316667 26.3839286,44.4033333 26.6517857,44.1466667 L30.1339286,40.9383333 C30.4017857,40.6816667 30.5357143,40.425 30.5357143,40.04 C30.5357143,39.7833333 30.4017857,39.3983333 30.1339286,39.1416667 L25.0446429,34.3933333 C24.6428571,35.1633333 24.1071429,35.805 23.4375,36.3183333 L27.4553571,40.04 L24.9107143,42.4783333 C24.2410714,42.9916667 24.2410714,43.6333333 24.7767857,44.1466667 Z" id="Shape" fill="#7F7F7F"></path>
                                        <path d="M38.7053571,62.37 L38.5714286,62.2416667 C38.0357143,61.7283333 37.2321429,61.7283333 36.8303571,62.2416667 C36.2946429,62.755 36.2946429,63.3966667 36.8303571,63.91 L36.9642857,64.0383333 C37.2321429,64.295 37.5,64.4233333 37.9017857,64.4233333 C38.1696429,64.4233333 38.5714286,64.295 38.8392857,64.0383333 C39.2410714,63.6533333 39.2410714,62.8833333 38.7053571,62.37 Z" id="Shape_1_" fill="#7F7F7F"></path>
                                        <path d="M55.8482143,58.3916667 L41.1160714,44.66 C40.8482143,44.4033333 40.5803571,44.275 40.1785714,44.275 C39.7767857,44.275 39.5089286,44.4033333 39.2410714,44.66 L33.8839286,49.665 C33.3482143,50.1783333 33.3482143,50.9483333 33.8839286,51.3333333 L48.75,65.1933333 C49.0178571,65.45 49.2857143,65.5783333 49.6875,65.5783333 C50.0892857,65.5783333 50.3571429,65.45 50.625,65.1933333 L55.9821429,60.1883333 C56.3839286,59.675 56.3839286,58.905 55.8482143,58.3916667 Z M49.5535714,62.6266667 L36.5625,50.5633333 L40.0446429,47.2266667 L53.0357143,59.29 L49.5535714,62.6266667 Z" id="Shape_2_" fill="#7F7F7F"></path>
                                        <path d="M39.2410714,39.3983333 C38.7053571,38.885 37.9017857,38.885 37.3660714,39.3983333 L36.9642857,39.7833333 C36.4285714,40.2966667 36.4285714,41.0666667 36.9642857,41.4516667 C37.2321429,41.7083333 37.5,41.8366667 37.9017857,41.8366667 C38.3035714,41.8366667 38.5714286,41.7083333 38.8392857,41.4516667 L39.2410714,41.0666667 C39.6428571,40.6816667 39.6428571,39.9116667 39.2410714,39.3983333 Z" id="Shape_3_" fill="#7F7F7F"></path>
                                        <path d="M43.125,36.575 L42.7232143,36.19 C42.1875,35.6766667 41.3839286,35.6766667 40.8482143,36.19 C40.3125,36.7033333 40.3125,37.4733333 40.8482143,37.8583333 L41.25,38.2433333 C41.5178571,38.5 41.7857143,38.6283333 42.1875,38.6283333 C42.5892857,38.6283333 42.8571429,38.5 43.125,38.2433333 C43.6607143,37.8583333 43.6607143,37.0883333 43.125,36.575 Z" id="Shape_4_" fill="#7F7F7F"></path>
                                        <path d="M31.0714286,46.97 C30.5357143,46.4566667 29.7321429,46.4566667 29.1964286,46.97 L28.7946429,47.355 C28.2589286,47.8683333 28.2589286,48.6383333 28.7946429,49.0233333 C29.0625,49.28 29.3303571,49.4083333 29.7321429,49.4083333 C30.1339286,49.4083333 30.4017857,49.28 30.6696429,49.0233333 L31.0714286,48.6383333 C31.6071429,48.2533333 31.6071429,47.4833333 31.0714286,46.97 Z" id="Shape_5_" fill="#7F7F7F"></path>
                                        <path d="M47.2767857,40.425 L46.875,40.04 C46.3392857,39.5266667 45.5357143,39.5266667 45,40.04 C44.4642857,40.5533333 44.4642857,41.3233333 45,41.7083333 L45.4017857,42.0933333 C45.6696429,42.35 45.9375,42.4783333 46.3392857,42.4783333 C46.7410714,42.4783333 47.0089286,42.35 47.2767857,42.0933333 C47.8125,41.7083333 47.8125,40.9383333 47.2767857,40.425 Z" id="Shape_6_" fill="#7F7F7F"></path>
                                        <path d="M26.9196429,49.665 L26.5178571,49.28 C25.9821429,48.7666667 25.1785714,48.7666667 24.6428571,49.28 C24.1071429,49.7933333 24.1071429,50.5633333 24.6428571,50.9483333 L25.0446429,51.3333333 C25.3125,51.59 25.5803571,51.7183333 25.9821429,51.7183333 C26.25,51.7183333 26.6517857,51.59 26.9196429,51.3333333 C27.4553571,50.82 27.4553571,50.05 26.9196429,49.665 Z" id="Shape_7_" fill="#7F7F7F"></path>
                                        <path d="M35.0892857,43.12 C34.5535714,42.6066667 33.75,42.6066667 33.2142857,43.12 L32.8125,43.505 C32.2767857,44.0183333 32.2767857,44.7883333 32.8125,45.1733333 C33.0803571,45.43 33.3482143,45.5583333 33.75,45.5583333 C34.1517857,45.5583333 34.4196429,45.43 34.6875,45.1733333 L35.0892857,44.7883333 C35.625,44.4033333 35.625,43.6333333 35.0892857,43.12 Z" id="Shape_8_" fill="#7F7F7F"></path>
                                        <path d="M55.4464286,45.1733333 C54.7767857,45.1733333 54.1071429,45.6866667 54.1071429,46.3283333 L54.1071429,46.8416667 L52.5,45.3016667 C51.9642857,44.7883333 51.1607143,44.7883333 50.7589286,45.3016667 C50.2232143,45.815 50.2232143,46.4566667 50.7589286,46.97 L52.5,48.6383333 L51.5625,48.6383333 C50.8928571,48.6383333 50.2232143,49.1516667 50.2232143,49.7933333 C50.2232143,50.435 50.7589286,50.9483333 51.5625,50.9483333 L55.3125,50.9483333 C55.9821429,50.9483333 56.6517857,50.435 56.6517857,49.7933333 L56.6517857,46.2 C56.7857143,45.6866667 56.1160714,45.1733333 55.4464286,45.1733333 Z" id="Shape_9_" fill="#7F7F7F"></path>
                                        <path d="M67.5,20.1483333 C66.8303571,20.1483333 66.2946429,20.6616667 66.2946429,21.3033333 L66.2946429,30.03 C66.2946429,30.6716667 66.8303571,31.185 67.5,31.185 C68.1696429,31.185 68.7053571,30.6716667 68.7053571,30.03 L68.7053571,21.3033333 C68.8392857,20.6616667 68.1696429,20.1483333 67.5,20.1483333 Z" id="Shape_10_" fill="#7F7F7F"></path>
                                        <path d="M68.4375,33.7516667 C68.1696429,33.495 67.9017857,33.3666667 67.5,33.3666667 C67.0982143,33.3666667 66.8303571,33.495 66.5625,33.7516667 C66.2946429,34.0083333 66.1607143,34.265 66.1607143,34.65 C66.1607143,35.035 66.2946429,35.2916667 66.5625,35.5483333 C66.8303571,35.805 67.0982143,35.9333333 67.5,35.9333333 C67.9017857,35.9333333 68.1696429,35.805 68.4375,35.5483333 C68.7053571,35.2916667 68.8392857,35.035 68.8392857,34.65 C68.8392857,34.265 68.7053571,34.0083333 68.4375,33.7516667 Z" id="Shape_11_" fill="#7F7F7F"></path>
                                        <g id="Group-3" fill="#7F7F7F">
                                            <path d="M18.2142857,0.128333333 C8.16964286,0.128333333 0.133928571,7.57166667 0.133928571,16.94 C0.133928571,20.79 1.47321429,24.3833333 4.15178571,27.5916667 L18.2142857,44.0183333 L32.2767857,27.5916667 C34.9553571,24.255 36.2946429,20.6616667 36.2946429,16.94 C36.2946429,7.57166667 28.125,0.128333333 18.2142857,0.128333333 Z M30,25.795 C30,25.795 25.9821429,30.5433333 18.0803571,39.9116667 L6.5625,26.0516667 C6.5625,26.0516667 6.42857143,25.9233333 6.42857143,25.9233333 C4.15178571,23.3566667 2.94642857,20.1483333 2.94642857,16.8116667 C2.94642857,8.98333333 9.77678571,2.56666667 18.2142857,2.56666667 C26.6517857,2.56666667 33.4821429,8.98333333 33.4821429,16.8116667 C33.4821429,20.02 32.2767857,23.2283333 30,25.795 Z" id="Shape"></path>
                                            <path d="M18.2142857,9.75333333 C13.7946429,9.75333333 10.1785714,13.09 10.1785714,17.1966667 C10.1785714,21.3033333 13.7946429,24.64 18.2142857,24.64 C22.6339286,24.64 26.25,21.3033333 26.25,17.1966667 C26.1160714,13.09 22.6339286,9.75333333 18.2142857,9.75333333 Z M18.2142857,22.2016667 C15.2678571,22.2016667 12.8571429,19.8916667 12.8571429,17.1966667 C12.8571429,14.5016667 15.2678571,12.1916667 18.2142857,12.1916667 C21.1607143,12.1916667 23.5714286,14.5016667 23.5714286,17.1966667 C23.5714286,19.8916667 21.1607143,22.2016667 18.2142857,22.2016667 Z" id="Shape_13_"></path>
                                        </g>
                                    </g>
                                </g>
                            </g>
                        </g>
                    </g>
                </g>
            </g>
        </g>
    </g>
</svg>