<?xml version="1.0" encoding="UTF-8"?>
<svg width="80" height="40" viewBox="0 0 150 75" version="1.1" xmlns="http://www.w3.org/2000/svg" xmlns:xlink="http://www.w3.org/1999/xlink">
    <!-- Generator: Sketch 52.4 (67378) - http://www.bohemiancoding.com/sketch -->
    <title>Yad2_logo_2</title>
    <desc>Created with Sketch.</desc>
    <defs>
        <path d="M10.2884868,22.6075658 C-2.74835526,41.4342105 -3.26414474,63.2707237 9.13848684,71.3773026 C18.6878289,77.6194079 33.1101974,73.9082237 45.1898026,63.2759868 C46.6835526,66.6269737 48.9342105,69.4072368 51.9480263,71.3773026 C61.1634868,77.4006579 74.9157895,74.15625 86.7223684,64.3674342 C88.2,67.2325658 90.2766447,69.6256579 92.9569079,71.3773026 C105.359211,79.4838816 125.979934,70.8032895 139.017105,51.9743421 C152.054276,33.1457237 152.570066,11.3111842 140.167434,3.20460526 C130.955592,-2.82203947 117.201316,0.425328947 105.392763,10.2154605 C103.915461,7.35 101.838816,4.95657895 99.1592105,3.20460526 L99.1542763,3.20460526 C89.6069079,-3.04046053 75.1855263,0.673026316 63.10625,11.3059211 C60.5509868,6.43388158 56.3513158,3.20460526 56.3513158,3.20460526 C53.1973684,1.14210526 49.5134868,0.165789474 45.5569079,0.166118421 C33.9523026,0.167105263 20.0108553,8.56809211 10.2884868,22.6075658" id="path-1"></path>
        <linearGradient x1="100%" y1="0%" x2="33.753431%" y2="100%" id="linearGradient-3">
            <stop stop-color="#F6D833" offset="0%"></stop>
            <stop stop-color="#FF7100" offset="100%"></stop>
        </linearGradient>
    </defs>
    <g id="Page-1" stroke="none" stroke-width="1" fill="none" fill-rule="evenodd">
        <g id="Yad2_logo_2">
            <g id="New-logo_negative">
                <g id="LogoNegative">
                    <mask id="mask-2" fill="white">
                        <use xlink:href="#path-1"></use>
                    </mask>
                    <g id="Clip-2"></g>
                    <path d="M10.2884868,22.6075658 C-2.74835526,41.4342105 -3.26414474,63.2707237 9.13848684,71.3773026 C18.6878289,77.6194079 33.1101974,73.9082237 45.1898026,63.2759868 C46.6835526,66.6269737 48.9342105,69.4072368 51.9480263,71.3773026 C61.1634868,77.4006579 74.9157895,74.15625 86.7223684,64.3674342 C88.2,67.2325658 90.2766447,69.6256579 92.9569079,71.3773026 C105.359211,79.4838816 125.979934,70.8032895 139.017105,51.9743421 C152.054276,33.1457237 152.570066,11.3111842 140.167434,3.20460526 C130.955592,-2.82203947 117.201316,0.425328947 105.392763,10.2154605 C103.915461,7.35 101.838816,4.95657895 99.1592105,3.20460526 L99.1542763,3.20460526 C89.6069079,-3.04046053 75.1855263,0.673026316 63.10625,11.3059211 C60.5509868,6.43388158 56.3513158,3.20460526 56.3513158,3.20460526 C53.1973684,1.14210526 49.5134868,0.165789474 45.5569079,0.166118421 C33.9523026,0.167105263 20.0108553,8.56809211 10.2884868,22.6075658" id="Fill-1" fill="#FFFFFF" mask="url(#mask-2)"></path>
                    <path d="M47.5911842,26.3658553 C49.0701316,27.1454605 49.6372368,28.9763816 48.8579605,30.4553289 L37.9033553,51.2434868 C35.8398684,55.1872368 31.7846053,57.7382237 27.3240789,57.8928289 C27.2882237,57.8938158 27.2526974,57.8944737 27.2171711,57.8944737 C25.5938158,57.8944737 24.2503947,56.6076316 24.1938158,54.9724342 C24.1359211,53.3013816 25.4434868,51.9000658 27.1142105,51.8421711 C29.4030263,51.7628947 31.4832895,50.455 32.5431579,48.4290132 L33.61125,46.4017105 L25.1490789,30.4635526 C24.3651974,28.9869079 24.9267105,27.1543421 26.4030263,26.3704605 C27.8796711,25.5865789 29.7122368,26.1477632 30.4961184,27.6244079 L37.0257237,39.9224342 L43.5017105,27.6326316 C44.2813158,26.1536842 46.1115789,25.5865789 47.5911842,26.3658553 Z M106.866785,50.6578947 C105.590521,50.6578947 104.427094,49.9049139 103.903711,48.739708 C103.380009,47.574502 103.588788,46.2038216 104.4357,45.2475998 L117.057774,30.9980755 L117.068293,30.9824416 C117.56522,30.2393516 117.827867,29.3705521 117.827867,28.4688895 C117.827867,25.9712903 115.798085,23.9391992 113.302612,23.9391992 C112.093922,23.9391992 110.957588,24.4104504 110.103027,25.2661684 C109.489438,25.8803583 108.673445,26.2185616 107.805496,26.2185616 C106.937547,26.2185616 106.121554,25.8803583 105.507647,25.2661684 C104.894377,24.6519785 104.555868,23.8351858 104.555868,22.9660672 C104.555868,22.0972677 104.894377,21.2804749 105.507647,20.6662851 C107.589704,18.5821872 110.358343,17.4342105 113.302612,17.4342105 C119.381442,17.4342105 124.326806,22.3844214 124.326806,28.4688895 C124.326806,30.8021729 123.607393,33.0333572 122.246342,34.9212333 C122.183868,35.0080176 122.115337,35.0938446 122.042663,35.176162 L114.090555,44.152906 L122.079637,44.152906 C123.871316,44.152906 125.328947,45.6119659 125.328947,47.4054004 C125.328947,49.1988348 123.871316,50.6578947 122.079637,50.6578947 L106.866785,50.6578947 Z M61.4961184,44.8029605 C65.0063158,44.8029605 67.8622368,41.9470395 67.8622368,38.4371711 C67.8622368,34.9269737 65.0063158,32.0710526 61.4961184,32.0710526 C57.9859211,32.0710526 55.13,34.9269737 55.13,38.4371711 C55.13,41.9470395 57.9859211,44.8029605 61.4961184,44.8029605 Z M73.9161842,38.4371711 L73.9161842,47.9263158 C73.9161842,49.5980263 72.5609211,50.9532895 70.8892105,50.9532895 C69.5878947,50.9532895 68.4816447,50.1305921 68.0536842,48.9779605 C66.1490789,50.1674342 63.9020395,50.8572368 61.4961184,50.8572368 C54.6477632,50.8572368 49.0760526,45.2855263 49.0760526,38.4371711 C49.0760526,31.5884868 54.6477632,26.0171053 61.4961184,26.0171053 C68.3444737,26.0171053 73.9161842,31.5884868 73.9161842,38.4371711 Z M88.5767763,44.8029605 C92.0866447,44.8029605 94.9425658,41.9470395 94.9425658,38.4371711 C94.9425658,34.9269737 92.0866447,32.0710526 88.5767763,32.0710526 C85.0665789,32.0710526 82.2106579,34.9269737 82.2106579,38.4371711 C82.2106579,41.9470395 85.0665789,44.8029605 88.5767763,44.8029605 Z M97.9698684,16.7 C99.6415789,16.7 100.996842,18.0552632 100.996842,19.7273026 L100.996842,47.9263158 C100.996842,49.5980263 99.6415789,50.9532895 97.9698684,50.9532895 C96.6685526,50.9532895 95.5619737,50.1305921 95.1343421,48.9779605 C93.2297368,50.1674342 90.9826974,50.8572368 88.5767763,50.8572368 C81.7280921,50.8572368 76.1563816,45.2855263 76.1563816,38.4371711 C76.1563816,31.5884868 81.7280921,26.0171053 88.5767763,26.0171053 C90.9024342,26.0171053 93.0797368,26.6608553 94.9425658,27.7776316 L94.9425658,19.7273026 C94.9425658,18.0552632 96.2978289,16.7 97.9698684,16.7 Z" id="Combined-Shape" fill="url(#linearGradient-3)" mask="url(#mask-2)"></path>
                </g>
            </g>
            <g id="Group-2-Copy-2" transform="translate(1.000000, 0.000000)">
                <path d="M23.5,21.6610344 L23.5,16.5 L26.5,16.5 C30.918278,16.5 34.5,12.918278 34.5,8.5 C34.5,4.081722 30.918278,0.5 26.5,0.5 L8.5,0.5 C4.081722,0.5 0.5,4.081722 0.5,8.5 C0.5,12.918278 4.081722,16.5 8.5,16.5 L18.5426148,16.5 L18.6825228,16.6186064 L20.3776207,18.0632594 L23.5,21.6610344 Z" id="Rectangle-2" stroke="#F9AF1F" fill="#FFFFFF"></path>
                <path d="M7.23065402,11.9027778 C7.16075851,11.9027778 7.10484295,11.8817132 7.06290564,11.8395833 C7.02096834,11.7974535 7,11.7439818 7,11.6791667 L7,5.33055556 C7,5.2592589 7.02096834,5.20254651 7.06290564,5.16041667 C7.10484295,5.11828683 7.16075851,5.09722222 7.23065402,5.09722222 L10.0928607,5.09722222 C10.8337531,5.09722222 11.3929087,5.26249835 11.7703445,5.59305556 C12.1477802,5.92361276 12.3364953,6.35462697 12.3364953,6.88611111 C12.3364953,7.24907589 12.2456325,7.55208212 12.0639041,7.79513889 C11.8821758,8.03819566 11.6689977,8.21481426 11.4243635,8.325 C11.7249141,8.46111179 11.9765342,8.67175783 12.1792312,8.95694444 C12.3819281,9.24213106 12.4832751,9.5694426 12.4832751,9.93888889 C12.4832751,10.3018537 12.3941597,10.6324059 12.2159261,10.9305556 C12.0376926,11.2287052 11.773841,11.4652769 11.4243635,11.6402778 C11.0748859,11.8152787 10.6590139,11.9027778 10.1767349,11.9027778 L7.23065402,11.9027778 Z M9.93559661,7.98472222 C10.3899174,7.98472222 10.735895,7.88912133 10.9735397,7.69791667 C11.2111844,7.50671201 11.330005,7.23935357 11.330005,6.89583333 C11.330005,6.55879461 11.2129318,6.30277865 10.9787818,6.12777778 C10.7446319,5.9527769 10.3969069,5.86527778 9.93559661,5.86527778 L7.98552172,5.86527778 L7.98552172,7.98472222 L9.93559661,7.98472222 Z M10.0404393,11.1347222 C10.4877706,11.1347222 10.8389902,11.0229178 11.0941088,10.7993056 C11.3492274,10.5756933 11.4767848,10.2888906 11.4767848,9.93888889 C11.4767848,9.58240563 11.3492274,9.29398258 11.0941088,9.07361111 C10.8389902,8.85323964 10.4877706,8.74305556 10.0404393,8.74305556 L7.98552172,8.74305556 L7.98552172,11.1347222 L10.0404393,11.1347222 Z M16.0164753,12 C15.3035411,12 14.7339013,11.794215 14.3075387,11.3826389 C13.8811761,10.9710628 13.6470297,10.4087999 13.6050924,9.69583333 L13.5946081,9.36527778 L13.6050924,9.04444444 C13.6470297,8.34444094 13.8811761,7.78703911 14.3075387,7.37222222 C14.7339013,6.95740533 15.3035411,6.75 16.0164753,6.75 C16.7853259,6.75 17.3811761,6.97684958 17.8040439,7.43055556 C18.2269117,7.88426153 18.4383425,8.49999611 18.4383425,9.27777778 L18.4383425,9.45277778 C18.4383425,9.51759292 18.4156268,9.5710646 18.3701947,9.61319444 C18.3247626,9.65532428 18.2670997,9.67638889 18.1972042,9.67638889 L14.5591613,9.67638889 L14.5591613,9.76388889 C14.5801299,10.1851873 14.7199188,10.5449059 14.9785322,10.8430556 C15.2371456,11.1412052 15.5796284,11.2902778 16.005991,11.2902778 C16.3344999,11.2902778 16.6018462,11.2303247 16.8080379,11.1104167 C17.0142297,10.9905087 17.1697449,10.8657414 17.2745881,10.7361111 C17.3374941,10.6583329 17.3864202,10.6113427 17.4213679,10.5951389 C17.4563157,10.5789351 17.515726,10.5708333 17.5996006,10.5708333 L18.0609086,10.5708333 C18.1238146,10.5708333 18.1779828,10.5870369 18.2234149,10.6194444 C18.268847,10.651852 18.2915627,10.6939812 18.2915627,10.7458333 C18.2915627,10.8884266 18.1972051,11.0601842 18.0084873,11.2611111 C17.8197694,11.462038 17.5524231,11.6354159 17.2064403,11.78125 C16.8604576,11.9270841 16.4638065,12 16.0164753,12 Z M17.4842736,9.01527778 L17.4842736,8.98611111 C17.4842736,8.53240514 17.3514741,8.16296439 17.0858712,7.87777778 C16.8202683,7.59259117 16.4638065,7.45 16.0164753,7.45 C15.5621545,7.45 15.2056928,7.59259117 14.9470794,7.87777778 C14.688466,8.16296439 14.5591613,8.53240514 14.5591613,8.98611111 L14.5591613,9.01527778 L17.4842736,9.01527778 Z M21.7828258,11.9027778 C20.6994454,11.9027778 20.1577634,11.3356538 20.1577634,10.2013889 L20.1577634,7.59583333 L19.3295057,7.59583333 C19.2596102,7.59583333 19.2036947,7.57638908 19.1617574,7.5375 C19.1198201,7.49861092 19.0988517,7.44675958 19.0988517,7.38194444 L19.0988517,7.07083333 C19.0988517,7.00601819 19.1198201,6.95254651 19.1617574,6.91041667 C19.2036947,6.86828683 19.2596102,6.84722222 19.3295057,6.84722222 L20.1577634,6.84722222 L20.1577634,5.22361111 C20.1577634,5.15879597 20.1787317,5.10532428 20.220669,5.06319444 C20.2626063,5.0210646 20.3185219,5 20.3884174,5 L20.8497254,5 C20.9196209,5 20.9772838,5.0210646 21.0227159,5.06319444 C21.068148,5.10532428 21.0908637,5.15879597 21.0908637,5.22361111 L21.0908637,6.84722222 L22.3909136,6.84722222 C22.4608091,6.84722222 22.5184721,6.86828683 22.5639041,6.91041667 C22.6093362,6.95254651 22.6320519,7.00601819 22.6320519,7.07083333 L22.6320519,7.38194444 C22.6320519,7.44675958 22.6093362,7.49861092 22.5639041,7.5375 C22.5184721,7.57638908 22.4608091,7.59583333 22.3909136,7.59583333 L21.0908637,7.59583333 L21.0908637,10.1333333 C21.0908637,10.4638905 21.1485266,10.7134251 21.2638542,10.8819444 C21.3791818,11.0504638 21.5766336,11.1347222 21.8562157,11.1347222 L22.4957564,11.1347222 C22.5656519,11.1347222 22.6215674,11.1557868 22.6635047,11.1979167 C22.705442,11.2400465 22.7264104,11.2935182 22.7264104,11.3583333 L22.7264104,11.6791667 C22.7264104,11.7439818 22.705442,11.7974535 22.6635047,11.8395833 C22.6215674,11.8817132 22.5656519,11.9027778 22.4957564,11.9027778 L21.7828258,11.9027778 Z M25.2636046,12 C24.9211166,12 24.6048442,11.9351858 24.3147778,11.8055556 C24.0247115,11.6759253 23.7940598,11.4993067 23.6228158,11.2756944 C23.4515718,11.0520822 23.3659511,10.804168 23.3659511,10.5319444 C23.3659511,10.1041645 23.5546661,9.75416803 23.9321018,9.48194444 C24.3095376,9.20972086 24.8232619,9.02824119 25.4732901,8.9375 L27.0459311,8.73333333 L27.0459311,8.45138889 C27.0459311,7.78379296 26.6300591,7.45 25.7983025,7.45 C25.4767832,7.45 25.2181737,7.5099531 25.0224663,7.62986111 C24.8267589,7.74976912 24.6834752,7.89073993 24.5926111,8.05277778 C24.5646529,8.11759292 24.5349477,8.16134248 24.5034948,8.18402778 C24.4720418,8.20671308 24.4283577,8.21805556 24.3724413,8.21805556 L23.9635547,8.21805556 C23.9006487,8.21805556 23.8464805,8.19699095 23.8010484,8.15486111 C23.7556163,8.11273127 23.7329006,8.06250029 23.7329006,8.00416667 C23.7329006,7.85509185 23.8080372,7.68171395 23.9583125,7.48402778 C24.1085879,7.2863416 24.3409869,7.11458406 24.6555167,6.96875 C24.9700465,6.82291594 25.354466,6.75 25.8087868,6.75 C26.5916165,6.75 27.1525195,6.91851683 27.4915127,7.25555556 C27.8305059,7.59259428 28,8.01388636 28,8.51944444 L28,11.6791667 C28,11.7439818 27.9772843,11.7974535 27.9318522,11.8395833 C27.8864201,11.8817132 27.8287572,11.9027778 27.7588617,11.9027778 L27.2975537,11.9027778 C27.2276582,11.9027778 27.1717426,11.8817132 27.1298053,11.8395833 C27.087868,11.7974535 27.0668997,11.7439818 27.0668997,11.6791667 L27.0668997,11.2513889 C26.9131295,11.4652788 26.6894673,11.6435178 26.3959061,11.7861111 C26.102345,11.9287044 25.7249149,12 25.2636046,12 Z M25.4732901,11.2902778 C25.9346004,11.2902778 26.3120305,11.1509273 26.6055916,10.8722222 C26.8991527,10.5935171 27.0459311,10.1884286 27.0459311,9.65694444 L27.0459311,9.38472222 L25.8192711,9.55 C25.3160234,9.61481514 24.9350986,9.72499922 24.6764853,9.88055556 C24.4178719,10.0361119 24.2885671,10.2305544 24.2885671,10.4638889 C24.2885671,10.729631 24.4056404,10.9337956 24.6397903,11.0763889 C24.8739403,11.2189822 25.1517707,11.2902778 25.4732901,11.2902778 Z" id="Beta" fill="#363636"></path>
            </g>
        </g>
    </g>
</svg>